# xmcd CD database file
# Copyright (C) 1995-1998 Ti Kan
#
# Track frame offsets:
#	182
#	13357
#	25710
#	40612
#	51840
#	68947
#	95485
#	112572
#	126342
#	143662
#	156250
#	174800
#
# Disc length: 2581 seconds
#
# Revision: 2
# Processed by: cddbd v1.4PL0 Copyright (c) Steve Scherf et al.
# Submitted via: Gronk 1.4
#
DISCID=930a130c
DTITLE=The Ranch - Ranch, The
DYEAR=1997
DGENRE=country
TTITLE0=Walkin' The Country
TTITLE1=Homespun Love
TTITLE2=Just Some Love
TTITLE3=Some Days You Gotta Dance
TTITLE4=My Last Name
TTITLE5=Desiree
TTITLE6=Freedom's Finally Mine
TTITLE7=Hank Don't Fail Me Now
TTITLE8=Tangled Up In Love
TTITLE9=Clutterbilly
TTITLE10=Man Of The House
TTITLE11=Ghost In The Guitar
EXTD=YEAR: 1997 ID3G:   2
EXTT0=
EXTT1=
EXTT2=
EXTT3=
EXTT4=
EXTT5=
EXTT6=
EXTT7=
EXTT8=
EXTT9=
EXTT10=
EXTT11=
PLAYORDER=
